<?xml version="1.0" encoding="utf-8"?>
<!-- Generator: Adobe Illustrator 16.0.3, SVG Export Plug-In . SVG Version: 6.00 Build 0)  -->
<!DOCTYPE svg PUBLIC "-//W3C//DTD SVG 1.1//EN" "http://www.w3.org/Graphics/SVG/1.1/DTD/svg11.dtd">
<svg version="1.1" id="Layer_1" xmlns="http://www.w3.org/2000/svg" xmlns:xlink="http://www.w3.org/1999/xlink" x="0px" y="0px"
	 width="1224px" height="792px" viewBox="0 0 1224 792" enable-background="new 0 0 1224 792" xml:space="preserve">
<g>
	<linearGradient id="SVGID_1_" gradientUnits="userSpaceOnUse" x1="295.8569" y1="395.9995" x2="928.1436" y2="395.9995">
		<stop  offset="0" style="stop-color:#F2F2F2"/>
		<stop  offset="0.6319" style="stop-color:#FFFFFF"/>
		<stop  offset="1" style="stop-color:#FEFEFE"/>
	</linearGradient>
	<path fill="url(#SVGID_1_)" d="M612,136.819c84.413,0,94.411,0.321,127.748,1.842c30.823,1.407,47.562,6.557,58.702,10.886
		c14.758,5.735,25.288,12.586,36.353,23.648c11.062,11.063,17.912,21.595,23.649,36.351c4.328,11.141,9.479,27.881,10.884,58.703
		c1.521,33.336,1.844,43.335,1.844,127.75c0,84.413-0.322,94.414-1.844,127.749c-1.404,30.825-6.556,47.562-10.884,58.702
		c-5.736,14.756-12.586,25.287-23.649,36.353c-11.064,11.064-21.595,17.913-36.353,23.649c-11.141,4.327-27.88,9.479-58.702,10.885
		c-33.331,1.521-43.328,1.843-127.748,1.843c-84.421,0-94.417-0.322-127.748-1.843c-30.824-1.405-47.563-6.558-58.704-10.885
		c-14.756-5.736-25.288-12.585-36.35-23.649c-11.063-11.063-17.915-21.597-23.65-36.353c-4.329-11.141-9.478-27.88-10.885-58.702
		c-1.521-33.335-1.842-43.336-1.842-127.749c0-84.415,0.321-94.412,1.842-127.748c1.407-30.824,6.558-47.563,10.885-58.704
		c5.735-14.756,12.587-25.288,23.65-36.35c11.062-11.063,21.594-17.914,36.35-23.649c11.14-4.33,27.88-9.479,58.704-10.886
		C517.587,137.14,527.586,136.819,612,136.819 M612,79.856c-85.858,0-96.626,0.364-130.345,1.902
		c-33.65,1.536-56.631,6.88-76.74,14.695c-20.789,8.079-38.42,18.888-55.997,36.465c-17.576,17.577-28.385,35.207-36.464,55.996
		c-7.816,20.109-13.16,43.091-14.695,76.74c-1.54,33.719-1.902,44.485-1.902,130.344c0,85.86,0.364,96.625,1.902,130.344
		c1.536,33.649,6.879,56.633,14.695,76.741c8.079,20.788,18.888,38.419,36.464,55.995c17.575,17.574,35.208,28.384,55.997,36.466
		c20.109,7.814,43.09,13.158,76.74,14.692c33.72,1.541,44.487,1.904,130.345,1.904c85.859,0,96.625-0.363,130.344-1.904
		c33.649-1.534,56.631-6.878,76.74-14.692c20.79-8.079,38.42-18.892,55.996-36.466c17.575-17.576,28.385-35.207,36.465-55.995
		c7.816-20.108,13.159-43.092,14.693-76.741c1.541-33.719,1.905-44.484,1.905-130.344c0-85.858-0.364-96.626-1.905-130.344
		c-1.534-33.649-6.877-56.632-14.693-76.741c-8.079-20.789-18.89-38.419-36.465-55.996c-17.576-17.576-35.206-28.386-55.996-36.465
		c-20.109-7.815-43.091-13.159-76.74-14.695C708.625,80.219,697.859,79.856,612,79.856L612,79.856z"/>
	<linearGradient id="SVGID_2_" gradientUnits="userSpaceOnUse" x1="449.6558" y1="395.998" x2="774.3418" y2="395.998">
		<stop  offset="0" style="stop-color:#F2F2F2"/>
		<stop  offset="0.6319" style="stop-color:#FFFFFF"/>
		<stop  offset="1" style="stop-color:#FEFEFE"/>
	</linearGradient>
	<path fill="url(#SVGID_2_)" d="M612,233.655c-89.66,0-162.344,72.683-162.344,162.344c0,89.662,72.683,162.342,162.344,162.342
		c89.66,0,162.342-72.683,162.342-162.342S701.66,233.655,612,233.655z M612,501.379c-58.2,0-105.382-47.18-105.382-105.38
		c0-58.2,47.183-105.382,105.382-105.382c58.2,0,105.382,47.18,105.382,105.382C717.382,454.199,670.2,501.379,612,501.379z"/>
	<linearGradient id="SVGID_3_" gradientUnits="userSpaceOnUse" x1="742.8213" y1="227.2402" x2="818.6943" y2="227.2402">
		<stop  offset="0" style="stop-color:#F2F2F2"/>
		<stop  offset="0.6319" style="stop-color:#FFFFFF"/>
		<stop  offset="1" style="stop-color:#FEFEFE"/>
	</linearGradient>
	<circle fill="url(#SVGID_3_)" cx="780.758" cy="227.24" r="37.937"/>
</g>
</svg>
